<svg width="1.375rem" height="1.25rem" viewBox="0 0 22 20" fill="#D2D4D6" xmlns="http://www.w3.org/2000/svg" style="width: 3rem; height: 3rem;"><path d="M3.00007 0C2.44779 0 2.00007 0.447715 2.00007 1C2.00007 1.55228 2.44779 2 3.00007 2H19.0001C19.5524 2 20.0001 1.55228 20.0001 1C20.0001 0.447715 19.5524 0 19.0001 0H3.00007Z"></path><path fill-rule="evenodd" clip-rule="evenodd" d="M21.6359 9.72528L20.0001 4H2.00007L0.36428 9.72528C0.181761 10.3641 0.661425 11 1.3258 11H2.00006V20H13.0001V13.5C13.0001 12.1193 14.1193 11 15.5001 11C16.8808 11 18.0001 12.1193 18.0001 13.5V20H20.0001V11H20.6743C21.3387 11 21.8184 10.3641 21.6359 9.72528ZM11.0001 11H4.00006V16H11.0001V11Z"></path></svg>