<svg 
    width="1.125rem" 
    height="1.125rem" 
    viewBox="0 0 18 18" 
    fill="none" 
    xmlns="http://www.w3.org/2000/svg">
    <path 
        fill-rule="evenodd" 
        clip-rule="evenodd" 
        d="M8.99984 0.666504C13.6022 0.666504 17.3332 4.39746 17.3332 8.99984C17.3332 13.6022 13.6022 17.3332 8.99984 17.3332C4.39746 17.3332 0.666504 13.6022 0.666504 8.99984C0.666504 4.39746 4.39746 0.666504 8.99984 0.666504ZM8.99984 2.33317C5.31794 2.33317 2.33317 5.31794 2.33317 8.99984C2.33317 12.6817 5.31794 15.6665 8.99984 15.6665C12.6817 15.6665 15.6665 12.6817 15.6665 8.99984C15.6665 5.31794 12.6817 2.33317 8.99984 2.33317ZM8.99984 3.99984C9.4272 3.99984 9.77943 4.32154 9.82756 4.73599L9.83317 4.83317L9.83317 8.72984L11.9197 9.94669C12.2889 10.162 12.431 10.6174 12.2638 10.9996L12.2197 11.0864C12.0043 11.4555 11.549 11.5977 11.1667 11.4304L11.0799 11.3863L8.57995 9.92799C8.35238 9.79524 8.2027 9.56393 8.17225 9.306L8.1665 9.20817L8.1665 4.83317C8.1665 4.37293 8.5396 3.99984 8.99984 3.99984Z" 
        fill="#676A70">
    </path>
</svg>