<svg 
    width="1.25rem" 
    height="1.25rem" 
    viewBox="0 0 20 20" 
    fill="none" 
    xmlns="http://www.w3.org/2000/svg">
    <path fill-rule="evenodd" 
        clip-rule="evenodd" 
        d="M15.5003 10.1667C15.8685 10.4429 15.9431 10.9652 15.667 11.3334L14.167 13.3334H15.8337C16.1493 13.3334 16.4379 13.5117 16.579 13.794C16.7202 14.0764 16.6897 14.4142 16.5003 14.6667L14.0003 18C13.7242 18.3682 13.2019 18.4429 12.8337 18.1667C12.4655 17.8906 12.3909 17.3682 12.667 17L14.167 15H12.5003C12.1847 15 11.8961 14.8217 11.755 14.5394C11.6138 14.2571 11.6443 13.9192 11.8337 13.6667L14.3337 10.3334C14.6098 9.96519 15.1321 9.89057 15.5003 10.1667Z" 
        fill="#FFCE00">
    </path>
    <path d="M12.1572 1.95046C10.7442 1.57185 9.25646 1.57185 7.8435 1.95045C6.43054 2.32906 5.14213 3.07292 4.10777 4.10728C3.07341 5.14164 2.32955 6.43005 1.95094 7.84301C1.57234 9.25597 1.57234 10.7437 1.95094 12.1567C2.32955 13.5696 3.07341 14.858 4.10777 15.8924C5.14213 16.9268 6.43054 17.6706 7.8435 18.0492C8.28805 18.1683 8.745 17.9045 8.86412 17.46C8.98324 17.0154 8.71942 16.5585 8.27486 16.4393C7.1445 16.1365 6.11377 15.5414 5.28628 14.7139C4.45879 13.8864 3.8637 12.8557 3.56082 11.7253C3.25794 10.5949 3.25794 9.40475 3.56082 8.27438C3.8637 7.14401 4.45879 6.11328 5.28628 5.28579C6.11377 4.4583 7.1445 3.86321 8.27487 3.56033C9.40524 3.25745 10.5954 3.25745 11.7258 3.56033C12.8562 3.86321 13.8869 4.45831 14.7144 5.28579C15.5419 6.11328 16.137 7.14401 16.4398 8.27438C16.5589 8.71893 17.0159 8.98275 17.4605 8.86363C17.905 8.74452 18.1688 8.28757 18.0497 7.84301C17.6711 6.43005 16.9272 5.14164 15.8929 4.10728C14.8585 3.07292 13.5701 2.32906 12.1572 1.95046Z" 
    fill="#676A70"></path>
    <path d="M10.0003 4.99984C9.57296 4.99984 9.22074 5.32154 9.1726 5.73599L9.16699 5.83317V9.72984L7.08043 10.9467C6.71129 11.162 6.56914 11.6174 6.73638 11.9996L6.78051 12.0864C6.99585 12.4555 7.4512 12.5977 7.83345 12.4304L7.92022 12.3863L10.4202 10.928C10.6478 10.7952 10.7975 10.5639 10.8279 10.306L10.8337 10.2082L10.8337 5.83317C10.8337 5.37293 10.4606 4.99984 10.0003 4.99984Z" 
    fill="#676A70"></path>
</svg>