<svg width="16" height="16" viewBox="0 0 16 16" fill="none" xmlns="http://www.w3.org/2000/svg"><path fill-rule="evenodd" clip-rule="evenodd" d="M11 2.5C11 2.20107 11.0525 1.9144 11.1487 1.64869L10 0.5L7.10355 3.39645L8.20711 4.50001L7.5 5.20712L6.39644 4.10356L0.5 10L1.72462 11.1226C1.96873 11.043 2.22934 11 2.5 11C3.88071 11 5 12.1193 5 13.5C5 13.6947 4.97775 13.8841 4.93565 14.066L6.5 15.5L11.9938 9.70096L10.7929 8.50002L11.5 7.79291L12.6818 8.97474L15.5 6L14.3513 4.85131C14.0856 4.94754 13.7989 5 13.5 5C12.1193 5 11 3.88071 11 2.5ZM10.7071 7.00001L9 5.29291L8.29289 6.00001L10 7.70712L10.7071 7.00001Z" fill="url(#paint0_linear_24519_2824)"></path><defs><linearGradient id="paint0_linear_24519_2824" x1="15" y1="0.999986" x2="1" y2="15" gradientUnits="userSpaceOnUse"><stop stop-color="#008542"></stop><stop offset="1" stop-color="#008542" stop-opacity="0.5"></stop></linearGradient></defs></svg>